<?xml version="1.0" encoding="UTF-8" standalone="no"?>
<!-- Created with Inkscape (http://www.inkscape.org/) -->

<svg
   width="42.303398mm"
   height="41.651794mm"
   viewBox="0 0 42.303398 41.651796"
   version="1.1"
   id="svg1"
   inkscape:export-filename="Club.svg"
   inkscape:export-xdpi="96"
   inkscape:export-ydpi="96"
   xmlns:inkscape="http://www.inkscape.org/namespaces/inkscape"
   xmlns:sodipodi="http://sodipodi.sourceforge.net/DTD/sodipodi-0.dtd"
   xmlns="http://www.w3.org/2000/svg"
   xmlns:svg="http://www.w3.org/2000/svg">
  <sodipodi:namedview
     id="namedview1"
     pagecolor="#ffffff"
     bordercolor="#000000"
     borderopacity="0.25"
     inkscape:showpageshadow="2"
     inkscape:pageopacity="0.0"
     inkscape:pagecheckerboard="0"
     inkscape:deskcolor="#d1d1d1"
     inkscape:document-units="mm" />
  <defs
     id="defs1" />
  <g
     inkscape:label="Layer 1"
     inkscape:groupmode="layer"
     id="layer1"
     transform="translate(18.377725,18.143557)">
    <path
       fill-rule="nonzero"
       fill="#000000"
       fill-opacity="1"
       d="m 16.340364,-2.1805524 c -1.47483,0 -2.841785,0.4262642 -4.003018,1.1514196 l -0.03876,0.024533 c -0.294042,0.18616704 -0.578234,0.39197121 -0.842801,0.61245256 L 6.5267375,3.1992907 C 5.7575007,3.7578451 4.8951449,4.1106203 4.003456,4.2821101 4.0724331,3.6549555 4.1698544,3.0572015 4.2925198,2.5084425 5.4832279,-2.82237 11.206015,-4.6891317 11.206015,-9.7063651 c 0,-4.6595659 -3.772691,-8.4371919 -8.4323422,-8.4371919 -4.659509,0 -8.4322001,3.777626 -8.4322001,8.4371919 0,5.0172334 5.72278718,6.8839951 6.913353,12.2148076 C 1.3778467,3.0522984 1.475268,3.64516 1.5389118,4.2723147 0.67655597,4.0959253 -0.16606671,3.7529563 -0.91578366,3.2139892 L -5.9183292,-0.39705021 C -6.1878376,-0.62734124 -6.4768658,-0.83310985 -6.780685,-1.0242048 l -0.014222,-0.00498 c -1.1661394,-0.7251518 -2.5330947,-1.151416 -4.003018,-1.151416 -4.184242,0 -7.5798,3.3905439 -7.5798,7.5748434 0,4.1842959 3.395558,7.5797464 7.5798,7.5797464 1.4699233,0 2.8417496,-0.426275 4.0078891,-1.156322 v 0.005 l 0.035555,-0.02453 c 0.2940415,-0.186202 0.578092,-0.391971 0.8426227,-0.617355 L -0.98280521,7.5942263 C -0.18416431,7.0111602 0.71253784,6.6485896 1.638573,6.4820028 1.5745737,11.023966 -0.1400403,16.972138 -5.6618695,23.31717 c -0.054044,0.05884 0,0.146985 0.014222,0.191073 1.3914171,-0.759445 4.2577352,-2.077447 8.1088611,-2.146044 0.1077322,0 0.2058646,0.01 0.3135968,0.01 0.1077323,0 0.2058647,-0.01 0.3135969,-0.01 3.8510904,0.06862 6.7174439,1.386599 8.1089677,2.146044 0,-0.04416 0.064,-0.132301 0.01422,-0.191073 C 5.6944969,16.97703 3.9747274,11.033765 3.9061059,6.4967049 4.8126213,6.663281 5.6896258,7.0160632 6.4686758,7.5746212 l 5.0025452,3.6159318 c 0.269509,0.230291 0.563444,0.436074 0.862356,0.627155 l 0.01422,0.005 c 1.161233,0.725142 2.528188,1.151416 3.998111,1.151416 4.184385,0 7.579765,-3.3954501 7.579765,-7.579746 0,-4.1842995 -3.39538,-7.5748434 -7.579765,-7.5748434"
       id="path1024-2"
       style="stroke-width:1.25431" />
  </g>
</svg>
