<?xml version="1.0" encoding="UTF-8" standalone="no"?>
<!-- Created with Inkscape (http://www.inkscape.org/) -->

<svg
   width="42.768192mm"
   height="53.558594mm"
   viewBox="0 0 42.768192 53.558594"
   version="1.1"
   id="svg1"
   inkscape:export-filename="Diamond.svg"
   inkscape:export-xdpi="96"
   inkscape:export-ydpi="96"
   xmlns:inkscape="http://www.inkscape.org/namespaces/inkscape"
   xmlns:sodipodi="http://sodipodi.sourceforge.net/DTD/sodipodi-0.dtd"
   xmlns="http://www.w3.org/2000/svg"
   xmlns:svg="http://www.w3.org/2000/svg">
  <sodipodi:namedview
     id="namedview1"
     pagecolor="#ffffff"
     bordercolor="#000000"
     borderopacity="0.25"
     inkscape:showpageshadow="2"
     inkscape:pageopacity="0.0"
     inkscape:pagecheckerboard="0"
     inkscape:deskcolor="#d1d1d1"
     inkscape:document-units="mm" />
  <defs
     id="defs1" />
  <g
     inkscape:label="Layer 1"
     inkscape:groupmode="layer"
     id="layer1"
     transform="translate(-89.450719,-114.0757)">
    <path
       fill-rule="nonzero"
       fill="#ed0000"
       fill-opacity="1"
       d="m 120.69415,129.53664 c -4.41147,-5.38021 -7.18227,-10.66145 -8.93227,-14.84375 -0.34893,-0.82292 -1.5052,-0.82292 -1.85413,0 -1.75,4.1823 -4.5208,9.46354 -8.93227,14.84375 -3.828131,4.67188 -7.807331,8.09375 -11.114661,10.51041 -0.5468,0.40104 -0.5468,1.21355 0,1.61459 3.30733,2.42188 7.28653,5.83855 11.114661,10.51041 4.41147,5.38021 7.18227,10.66147 8.93227,14.84896 0.34893,0.81771 1.5052,0.81771 1.85413,0 1.75,-4.18749 4.5208,-9.46875 8.93227,-14.84896 3.82813,-4.67186 7.80733,-8.08853 11.11466,-10.51041 0.5468,-0.40104 0.5468,-1.21355 0,-1.61459 -3.30733,-2.41666 -7.28653,-5.83853 -11.11466,-10.51041"
       id="path1048"
       style="stroke-width:1.33333" />
  </g>
</svg>
